# 3ds Max Wavefront OBJ Exporter v0.97b - (c)2007 guruware
# File Created: 05.05.2014 13:39:57

mtllib pool_cue.mtl

#
# object poolcue02
#

v  0.0065 0.0104 0.1349
v  -0.0000 0.0120 0.1349
v  -0.0000 0.0148 0.7206
v  0.0080 0.0128 0.7206
v  0.0043 0.0069 -0.7111
v  -0.0000 0.0080 -0.7111
v  0.0113 0.0060 0.1349
v  0.0139 0.0074 0.7206
v  0.0075 0.0040 -0.7111
v  0.0130 0.0000 0.1349
v  0.0160 0.0000 0.7206
v  0.0087 0.0000 -0.7111
v  0.0113 -0.0060 0.1349
v  0.0139 -0.0074 0.7206
v  0.0075 -0.0040 -0.7111
v  0.0065 -0.0104 0.1349
v  0.0080 -0.0128 0.7206
v  0.0043 -0.0069 -0.7111
v  -0.0000 -0.0120 0.1349
v  -0.0000 -0.0148 0.7206
v  -0.0000 -0.0080 -0.7111
v  -0.0065 -0.0104 0.1349
v  -0.0080 -0.0128 0.7206
v  -0.0043 -0.0069 -0.7111
v  -0.0113 -0.0060 0.1349
v  -0.0139 -0.0074 0.7206
v  -0.0075 -0.0040 -0.7111
v  -0.0130 0.0000 0.1349
v  -0.0160 0.0000 0.7206
v  -0.0087 0.0000 -0.7111
v  -0.0113 0.0060 0.1349
v  -0.0139 0.0074 0.7206
v  -0.0075 0.0040 -0.7111
v  -0.0065 0.0104 0.1349
v  -0.0080 0.0128 0.7206
v  -0.0043 0.0069 -0.7111
v  -0.0026 0.0028 0.7316
v  -0.0000 0.0035 0.7316
v  -0.0000 0.0066 0.7326
v  -0.0041 0.0056 0.7326
v  0.0026 0.0028 0.7316
v  0.0041 0.0056 0.7326
v  0.0042 0.0014 0.7316
v  0.0068 0.0031 0.7326
v  0.0046 0.0000 0.7316
v  0.0077 0.0000 0.7326
v  0.0042 -0.0014 0.7316
v  0.0068 -0.0031 0.7326
v  0.0026 -0.0028 0.7316
v  0.0041 -0.0056 0.7326
v  -0.0000 -0.0035 0.7316
v  -0.0000 -0.0066 0.7326
v  -0.0026 -0.0028 0.7316
v  -0.0041 -0.0056 0.7326
v  -0.0042 -0.0014 0.7316
v  -0.0068 -0.0031 0.7326
v  -0.0046 0.0000 0.7316
v  -0.0077 0.0000 0.7326
v  -0.0042 0.0014 0.7316
v  -0.0068 0.0031 0.7326
v  -0.0000 0.0097 0.7371
v  -0.0056 0.0083 0.7371
v  0.0056 0.0083 0.7371
v  0.0095 0.0047 0.7371
v  0.0108 0.0000 0.7371
v  0.0095 -0.0047 0.7371
v  0.0056 -0.0083 0.7371
v  -0.0000 -0.0097 0.7371
v  -0.0056 -0.0083 0.7371
v  -0.0095 -0.0047 0.7371
v  -0.0108 0.0000 0.7371
v  -0.0095 0.0047 0.7371
v  -0.0000 0.0128 0.7381
v  -0.0070 0.0110 0.7381
v  0.0070 0.0110 0.7381
v  0.0121 0.0063 0.7381
v  0.0139 0.0000 0.7381
v  0.0121 -0.0063 0.7381
v  0.0070 -0.0110 0.7381
v  -0.0000 -0.0128 0.7381
v  -0.0070 -0.0110 0.7381
v  -0.0121 -0.0063 0.7381
v  -0.0139 0.0000 0.7381
v  -0.0121 0.0063 0.7381
v  -0.0000 0.0138 0.7361
v  -0.0075 0.0119 0.7361
v  0.0075 0.0119 0.7361
v  0.0130 0.0069 0.7361
v  0.0150 0.0000 0.7361
v  0.0130 -0.0069 0.7361
v  0.0075 -0.0119 0.7361
v  -0.0000 -0.0138 0.7361
v  -0.0075 -0.0119 0.7361
v  -0.0130 -0.0069 0.7361
v  -0.0150 0.0000 0.7361
v  -0.0130 0.0069 0.7361
v  -0.0000 0.0148 0.7336
v  -0.0080 0.0128 0.7336
v  0.0080 0.0128 0.7336
v  0.0139 0.0074 0.7336
v  0.0160 0.0000 0.7336
v  0.0139 -0.0074 0.7336
v  0.0080 -0.0128 0.7336
v  -0.0000 -0.0148 0.7336
v  -0.0080 -0.0128 0.7336
v  -0.0139 -0.0074 0.7336
v  -0.0160 0.0000 0.7336
v  -0.0139 0.0074 0.7336
v  -0.0000 0.0159 0.7311
v  -0.0085 0.0138 0.7311
v  0.0085 0.0138 0.7311
v  0.0148 0.0080 0.7311
v  0.0171 0.0000 0.7311
v  0.0148 -0.0080 0.7311
v  0.0085 -0.0138 0.7311
v  -0.0000 -0.0159 0.7311
v  -0.0085 -0.0138 0.7311
v  -0.0148 -0.0080 0.7311
v  -0.0171 0.0000 0.7311
v  -0.0148 0.0080 0.7311
v  -0.0000 0.0159 0.7216
v  -0.0085 0.0138 0.7216
v  0.0085 0.0138 0.7216
v  0.0148 0.0080 0.7216
v  0.0171 0.0000 0.7216
v  0.0148 -0.0080 0.7216
v  0.0085 -0.0138 0.7216
v  -0.0000 -0.0159 0.7216
v  -0.0085 -0.0138 0.7216
v  -0.0148 -0.0080 0.7216
v  -0.0171 0.0000 0.7216
v  -0.0148 0.0080 0.7216
v  0.0033 0.0051 -0.7381
v  -0.0000 0.0059 -0.7381
v  -0.0000 0.0070 -0.7371
v  0.0038 0.0060 -0.7371
v  -0.0033 0.0051 -0.7381
v  -0.0038 0.0060 -0.7371
v  -0.0057 0.0029 -0.7381
v  -0.0066 0.0035 -0.7371
v  -0.0066 0.0000 -0.7381
v  -0.0076 0.0000 -0.7371
v  -0.0057 -0.0029 -0.7381
v  -0.0066 -0.0035 -0.7371
v  -0.0033 -0.0051 -0.7381
v  -0.0038 -0.0060 -0.7371
v  -0.0000 -0.0059 -0.7381
v  -0.0000 -0.0070 -0.7371
v  0.0033 -0.0051 -0.7381
v  0.0038 -0.0060 -0.7371
v  0.0057 -0.0029 -0.7381
v  0.0066 -0.0035 -0.7371
v  0.0066 0.0000 -0.7381
v  0.0076 0.0000 -0.7371
v  0.0057 0.0029 -0.7381
v  0.0066 0.0035 -0.7371
v  -0.0000 0.0080 -0.7361
v  0.0043 0.0069 -0.7361
v  -0.0043 0.0069 -0.7361
v  -0.0075 0.0040 -0.7361
v  -0.0087 0.0000 -0.7361
v  -0.0075 -0.0040 -0.7361
v  -0.0043 -0.0069 -0.7361
v  -0.0000 -0.0080 -0.7361
v  0.0043 -0.0069 -0.7361
v  0.0075 -0.0040 -0.7361
v  0.0087 0.0000 -0.7361
v  0.0075 0.0040 -0.7361
v  -0.0000 0.0090 -0.7351
v  0.0048 0.0078 -0.7351
v  -0.0048 0.0078 -0.7351
v  -0.0084 0.0045 -0.7351
v  -0.0097 0.0000 -0.7351
v  -0.0084 -0.0045 -0.7351
v  -0.0048 -0.0078 -0.7351
v  -0.0000 -0.0090 -0.7351
v  0.0048 -0.0078 -0.7351
v  0.0084 -0.0045 -0.7351
v  0.0097 0.0000 -0.7351
v  0.0084 0.0045 -0.7351
v  -0.0000 0.0090 -0.7121
v  0.0048 0.0078 -0.7121
v  -0.0048 0.0078 -0.7121
v  -0.0084 0.0045 -0.7121
v  -0.0097 0.0000 -0.7121
v  -0.0084 -0.0045 -0.7121
v  -0.0048 -0.0078 -0.7121
v  -0.0000 -0.0090 -0.7121
v  0.0048 -0.0078 -0.7121
v  0.0084 -0.0045 -0.7121
v  0.0097 0.0000 -0.7121
v  0.0084 0.0045 -0.7121
# 192 vertices

vn 0.4748 0.8801 -0.0049
vn -0.0000 1.0000 -0.0048
vn -0.0000 0.9099 -0.4149
vn 0.4317 0.8001 -0.4164
vn 0.4326 0.8019 0.4120
vn 0.0000 0.9118 0.4106
vn 0.8509 0.5253 -0.0050
vn 0.7723 0.4768 -0.4198
vn 0.7740 0.4779 0.4153
vn 1.0000 -0.0000 -0.0052
vn 0.9067 0.0000 -0.4218
vn 0.9088 0.0000 0.4171
vn 0.8509 -0.5253 -0.0050
vn 0.7723 -0.4768 -0.4198
vn 0.7740 -0.4779 0.4153
vn 0.4748 -0.8801 -0.0049
vn 0.4317 -0.8001 -0.4164
vn 0.4326 -0.8019 0.4120
vn -0.0000 -1.0000 -0.0048
vn 0.0000 -0.9099 -0.4149
vn -0.0000 -0.9118 0.4106
vn -0.4748 -0.8801 -0.0049
vn -0.4317 -0.8001 -0.4164
vn -0.4326 -0.8019 0.4120
vn -0.8509 -0.5253 -0.0050
vn -0.7723 -0.4768 -0.4198
vn -0.7740 -0.4779 0.4153
vn -1.0000 0.0000 -0.0052
vn -0.9067 -0.0000 -0.4218
vn -0.9088 -0.0000 0.4171
vn -0.8509 0.5253 -0.0050
vn -0.7723 0.4768 -0.4198
vn -0.7740 0.4779 0.4153
vn -0.4748 0.8801 -0.0049
vn -0.4317 0.8001 -0.4164
vn -0.4326 0.8019 0.4120
vn 0.0853 -0.1581 0.9837
vn 0.0000 -0.1791 0.9838
vn 0.0000 -0.6280 0.7782
vn 0.2984 -0.5530 0.7779
vn -0.0853 -0.1581 0.9837
vn -0.2984 -0.5530 0.7779
vn -0.1537 -0.0949 0.9836
vn -0.5353 -0.3305 0.7773
vn -0.1811 0.0000 0.9835
vn -0.6294 -0.0000 0.7771
vn -0.1537 0.0949 0.9836
vn -0.5353 0.3305 0.7773
vn -0.0853 0.1581 0.9837
vn -0.2984 0.5530 0.7779
vn 0.0000 0.1791 0.9838
vn 0.0000 0.6280 0.7782
vn 0.0853 0.1581 0.9837
vn 0.2984 0.5530 0.7779
vn 0.1537 0.0949 0.9836
vn 0.5353 0.3305 0.7773
vn 0.1811 0.0000 0.9835
vn 0.6294 -0.0000 0.7771
vn 0.1537 -0.0949 0.9836
vn 0.5353 -0.3305 0.7773
vn 0.0000 -0.5641 0.8257
vn 0.2669 -0.4947 0.8271
vn -0.2669 -0.4947 0.8271
vn -0.4745 -0.2929 0.8301
vn -0.5551 -0.0000 0.8318
vn -0.4745 0.2929 0.8301
vn -0.2669 0.4947 0.8271
vn 0.0000 0.5641 0.8257
vn 0.2669 0.4947 0.8271
vn 0.4745 0.2929 0.8301
vn 0.5551 -0.0000 0.8318
vn 0.4745 -0.2929 0.8301
vn 0.0000 0.4601 0.8879
vn -0.2196 0.4071 0.8866
vn 0.2196 0.4071 0.8866
vn 0.3980 0.2457 0.8839
vn 0.4706 0.0000 0.8823
vn 0.3980 -0.2457 0.8839
vn 0.2196 -0.4071 0.8866
vn -0.0000 -0.4601 0.8879
vn -0.2196 -0.4071 0.8866
vn -0.3980 -0.2457 0.8839
vn -0.4706 -0.0000 0.8823
vn -0.3980 0.2457 0.8839
vn -0.0000 0.9087 0.4174
vn -0.4313 0.7995 0.4181
vn 0.4313 0.7995 0.4181
vn 0.7723 0.4768 0.4197
vn 0.9072 0.0000 0.4206
vn 0.7723 -0.4768 0.4197
vn 0.4313 -0.7995 0.4181
vn -0.0000 -0.9087 0.4174
vn -0.4313 -0.7995 0.4181
vn -0.7723 -0.4768 0.4197
vn -0.9072 0.0000 0.4206
vn -0.7723 0.4768 0.4197
vn -0.0000 0.9246 0.3810
vn -0.4388 0.8134 0.3817
vn 0.4388 0.8134 0.3817
vn 0.7859 0.4852 0.3834
vn 0.9232 0.0000 0.3844
vn 0.7859 -0.4852 0.3834
vn 0.4388 -0.8134 0.3817
vn -0.0000 -0.9246 0.3810
vn -0.4388 -0.8134 0.3817
vn -0.7859 -0.4852 0.3834
vn -0.9232 0.0000 0.3844
vn -0.7859 0.4852 0.3834
vn -0.0000 0.9820 0.1888
vn -0.4662 0.8642 0.1889
vn 0.4662 0.8642 0.1889
vn 0.8355 0.5158 0.1894
vn 0.9819 -0.0000 0.1897
vn 0.8355 -0.5158 0.1894
vn 0.4662 -0.8642 0.1889
vn -0.0000 -0.9820 0.1888
vn -0.4662 -0.8642 0.1889
vn -0.8355 -0.5158 0.1894
vn -0.9819 0.0000 0.1897
vn -0.8355 0.5158 0.1894
vn -0.0000 0.9292 -0.3696
vn -0.4412 0.8178 -0.3694
vn 0.4412 0.8178 -0.3694
vn 0.7908 0.4882 -0.3691
vn 0.9295 0.0000 -0.3689
vn 0.7908 -0.4882 -0.3691
vn 0.4412 -0.8178 -0.3694
vn -0.0000 -0.9292 -0.3696
vn -0.4412 -0.8178 -0.3694
vn -0.7908 -0.4882 -0.3691
vn -0.9295 0.0000 -0.3689
vn -0.7908 0.4882 -0.3691
vn 0.2016 0.3736 -0.9054
vn -0.0000 0.4234 -0.9059
vn -0.0000 0.6965 -0.7176
vn 0.3303 0.6123 -0.7183
vn -0.2016 0.3736 -0.9054
vn -0.3303 0.6123 -0.7183
vn -0.3632 0.2242 -0.9043
vn -0.5904 0.3645 -0.7201
vn -0.4280 0.0000 -0.9038
vn -0.6927 0.0000 -0.7212
vn -0.3632 -0.2242 -0.9043
vn -0.5904 -0.3645 -0.7201
vn -0.2016 -0.3736 -0.9054
vn -0.3303 -0.6123 -0.7183
vn -0.0000 -0.4234 -0.9059
vn -0.0000 -0.6965 -0.7176
vn 0.2016 -0.3736 -0.9054
vn 0.3303 -0.6123 -0.7183
vn 0.3632 -0.2242 -0.9043
vn 0.5904 -0.3645 -0.7201
vn 0.4280 0.0000 -0.9038
vn 0.6927 0.0000 -0.7212
vn 0.3632 0.2242 -0.9043
vn 0.5904 0.3645 -0.7201
vn 0.6927 -0.0000 -0.7212
vn 0.9295 -0.0000 -0.3689
vn -0.0000 0.9292 0.3696
vn 0.4412 0.8178 0.3694
vn -0.4412 0.8178 0.3694
vn -0.7908 0.4882 0.3691
vn -0.9295 -0.0000 0.3689
vn -0.7908 -0.4882 0.3691
vn -0.4412 -0.8178 0.3694
vn -0.0000 -0.9292 0.3696
vn 0.4412 -0.8178 0.3694
vn 0.7908 -0.4882 0.3691
vn 0.9295 0.0000 0.3689
vn 0.7908 0.4882 0.3691
# 170 vertex normals

g poolcue02
usemtl Pool_Stick02
s 1
f 1//1 2//2 3//3 
f 1//1 3//3 4//4 
usemtl Pool_Stick01
f 5//5 6//6 2//2 
f 5//5 2//2 1//1 
usemtl Pool_Stick02
f 7//7 1//1 4//4 
f 7//7 4//4 8//8 
usemtl Pool_Stick01
f 9//9 5//5 1//1 
f 9//9 1//1 7//7 
usemtl Pool_Stick02
f 10//10 7//7 8//8 
f 10//10 8//8 11//11 
usemtl Pool_Stick01
f 12//12 9//9 7//7 
f 12//12 7//7 10//10 
usemtl Pool_Stick02
f 13//13 10//10 11//11 
f 13//13 11//11 14//14 
usemtl Pool_Stick01
f 15//15 12//12 10//10 
f 15//15 10//10 13//13 
usemtl Pool_Stick02
f 16//16 13//13 14//14 
f 16//16 14//14 17//17 
usemtl Pool_Stick01
f 18//18 15//15 13//13 
f 18//18 13//13 16//16 
usemtl Pool_Stick02
f 19//19 16//16 17//17 
f 19//19 17//17 20//20 
usemtl Pool_Stick01
f 21//21 18//18 16//16 
f 21//21 16//16 19//19 
usemtl Pool_Stick02
f 22//22 19//19 20//20 
f 22//22 20//20 23//23 
usemtl Pool_Stick01
f 24//24 21//21 19//19 
f 24//24 19//19 22//22 
usemtl Pool_Stick02
f 25//25 22//22 23//23 
f 25//25 23//23 26//26 
usemtl Pool_Stick01
f 27//27 24//24 22//22 
f 27//27 22//22 25//25 
usemtl Pool_Stick02
f 28//28 25//25 26//26 
f 28//28 26//26 29//29 
usemtl Pool_Stick01
f 30//30 27//27 25//25 
f 30//30 25//25 28//28 
usemtl Pool_Stick02
f 31//31 28//28 29//29 
f 31//31 29//29 32//32 
usemtl Pool_Stick01
f 33//33 30//30 28//28 
f 33//33 28//28 31//31 
usemtl Pool_Stick02
f 34//34 31//31 32//32 
f 34//34 32//32 35//35 
usemtl Pool_Stick01
f 36//36 33//33 31//31 
f 36//36 31//31 34//34 
usemtl Pool_Stick02
f 2//2 34//34 35//35 
f 2//2 35//35 3//3 
usemtl Pool_Stick01
f 6//6 36//36 34//34 
f 6//6 34//34 2//2 
usemtl Pool_rubber01
f 37//37 38//38 39//39 
f 37//37 39//39 40//40 
f 38//38 41//41 42//42 
f 38//38 42//42 39//39 
f 41//41 43//43 44//44 
f 41//41 44//44 42//42 
f 43//43 45//45 46//46 
f 43//43 46//46 44//44 
f 45//45 47//47 48//48 
f 45//45 48//48 46//46 
f 47//47 49//49 50//50 
f 47//47 50//50 48//48 
f 49//49 51//51 52//52 
f 49//49 52//52 50//50 
f 51//51 53//53 54//54 
f 51//51 54//54 52//52 
f 53//53 55//55 56//56 
f 53//53 56//56 54//54 
f 55//55 57//57 58//58 
f 55//55 58//58 56//56 
f 57//57 59//59 60//60 
f 57//57 60//60 58//58 
f 59//59 37//37 40//40 
f 59//59 40//40 60//60 
f 40//40 39//39 61//61 
f 40//40 61//61 62//62 
f 39//39 42//42 63//63 
f 39//39 63//63 61//61 
f 42//42 44//44 64//64 
f 42//42 64//64 63//63 
f 44//44 46//46 65//65 
f 44//44 65//65 64//64 
f 46//46 48//48 66//66 
f 46//46 66//66 65//65 
f 48//48 50//50 67//67 
f 48//48 67//67 66//66 
f 50//50 52//52 68//68 
f 50//50 68//68 67//67 
f 52//52 54//54 69//69 
f 52//52 69//69 68//68 
f 54//54 56//56 70//70 
f 54//54 70//70 69//69 
f 56//56 58//58 71//71 
f 56//56 71//71 70//70 
f 58//58 60//60 72//72 
f 58//58 72//72 71//71 
f 60//60 40//40 62//62 
f 60//60 62//62 72//72 
f 62//62 61//61 73//73 
f 62//62 73//73 74//74 
f 61//61 63//63 75//75 
f 61//61 75//75 73//73 
f 63//63 64//64 76//76 
f 63//63 76//76 75//75 
f 64//64 65//65 77//77 
f 64//64 77//77 76//76 
f 65//65 66//66 78//78 
f 65//65 78//78 77//77 
f 66//66 67//67 79//79 
f 66//66 79//79 78//78 
f 67//67 68//68 80//80 
f 67//67 80//80 79//79 
f 68//68 69//69 81//81 
f 68//68 81//81 80//80 
f 69//69 70//70 82//82 
f 69//69 82//82 81//81 
f 70//70 71//71 83//83 
f 70//70 83//83 82//82 
f 71//71 72//72 84//84 
f 71//71 84//84 83//83 
f 72//72 62//62 74//74 
f 72//72 74//74 84//84 
f 74//74 73//73 85//85 
f 74//74 85//85 86//86 
f 73//73 75//75 87//87 
f 73//73 87//87 85//85 
f 75//75 76//76 88//88 
f 75//75 88//88 87//87 
f 76//76 77//77 89//89 
f 76//76 89//89 88//88 
f 77//77 78//78 90//90 
f 77//77 90//90 89//89 
f 78//78 79//79 91//91 
f 78//78 91//91 90//90 
f 79//79 80//80 92//92 
f 79//79 92//92 91//91 
f 80//80 81//81 93//93 
f 80//80 93//93 92//92 
f 81//81 82//82 94//94 
f 81//81 94//94 93//93 
f 82//82 83//83 95//95 
f 82//82 95//95 94//94 
f 83//83 84//84 96//96 
f 83//83 96//96 95//95 
f 84//84 74//74 86//86 
f 84//84 86//86 96//96 
f 86//86 85//85 97//97 
f 86//86 97//97 98//98 
f 85//85 87//87 99//99 
f 85//85 99//99 97//97 
f 87//87 88//88 100//100 
f 87//87 100//100 99//99 
f 88//88 89//89 101//101 
f 88//88 101//101 100//100 
f 89//89 90//90 102//102 
f 89//89 102//102 101//101 
f 90//90 91//91 103//103 
f 90//90 103//103 102//102 
f 91//91 92//92 104//104 
f 91//91 104//104 103//103 
f 92//92 93//93 105//105 
f 92//92 105//105 104//104 
f 93//93 94//94 106//106 
f 93//93 106//106 105//105 
f 94//94 95//95 107//107 
f 94//94 107//107 106//106 
f 95//95 96//96 108//108 
f 95//95 108//108 107//107 
f 96//96 86//86 98//98 
f 96//96 98//98 108//108 
f 98//98 97//97 109//109 
f 98//98 109//109 110//110 
f 97//97 99//99 111//111 
f 97//97 111//111 109//109 
f 99//99 100//100 112//112 
f 99//99 112//112 111//111 
f 100//100 101//101 113//113 
f 100//100 113//113 112//112 
f 101//101 102//102 114//114 
f 101//101 114//114 113//113 
f 102//102 103//103 115//115 
f 102//102 115//115 114//114 
f 103//103 104//104 116//116 
f 103//103 116//116 115//115 
f 104//104 105//105 117//117 
f 104//104 117//117 116//116 
f 105//105 106//106 118//118 
f 105//105 118//118 117//117 
f 106//106 107//107 119//119 
f 106//106 119//119 118//118 
f 107//107 108//108 120//120 
f 107//107 120//120 119//119 
f 108//108 98//98 110//110 
f 108//108 110//110 120//120 
f 110//110 109//109 121//121 
f 110//110 121//121 122//122 
f 109//109 111//111 123//123 
f 109//109 123//123 121//121 
f 111//111 112//112 124//124 
f 111//111 124//124 123//123 
f 112//112 113//113 125//125 
f 112//112 125//125 124//124 
f 113//113 114//114 126//126 
f 113//113 126//126 125//125 
f 114//114 115//115 127//127 
f 114//114 127//127 126//126 
f 115//115 116//116 128//128 
f 115//115 128//128 127//127 
f 116//116 117//117 129//129 
f 116//116 129//129 128//128 
f 117//117 118//118 130//130 
f 117//117 130//130 129//129 
f 118//118 119//119 131//131 
f 118//118 131//131 130//130 
f 119//119 120//120 132//132 
f 119//119 132//132 131//131 
f 120//120 110//110 122//122 
f 120//120 122//122 132//132 
f 122//122 121//121 3//3 
f 122//122 3//3 35//35 
f 121//121 123//123 4//4 
f 121//121 4//4 3//3 
f 123//123 124//124 8//8 
f 123//123 8//8 4//4 
f 124//124 125//125 11//11 
f 124//124 11//11 8//8 
f 125//125 126//126 14//14 
f 125//125 14//14 11//11 
f 126//126 127//127 17//17 
f 126//126 17//17 14//14 
f 127//127 128//128 20//20 
f 127//127 20//20 17//17 
f 128//128 129//129 23//23 
f 128//128 23//23 20//20 
f 129//129 130//130 26//26 
f 129//129 26//26 23//23 
f 130//130 131//131 29//29 
f 130//130 29//29 26//26 
f 131//131 132//132 32//32 
f 131//131 32//32 29//29 
f 132//132 122//122 35//35 
f 132//132 35//35 32//32 
usemtl Pool_cue01
f 133//133 134//134 135//135 
f 133//133 135//135 136//136 
f 134//134 137//137 138//138 
f 134//134 138//138 135//135 
f 137//137 139//139 140//140 
f 137//137 140//140 138//138 
f 139//139 141//141 142//142 
f 139//139 142//142 140//140 
f 141//141 143//143 144//144 
f 141//141 144//144 142//142 
f 143//143 145//145 146//146 
f 143//143 146//146 144//144 
f 145//145 147//147 148//148 
f 145//145 148//148 146//146 
f 147//147 149//149 150//150 
f 147//147 150//150 148//148 
f 149//149 151//151 152//152 
f 149//149 152//152 150//150 
f 151//151 153//153 154//154 
f 151//151 154//154 152//152 
f 153//153 155//155 156//156 
f 153//153 156//156 154//154 
f 155//155 133//133 136//136 
f 155//155 136//136 156//156 
f 136//136 135//135 157//135 
f 136//136 157//135 158//136 
f 135//135 138//138 159//138 
f 135//135 159//138 157//135 
f 138//138 140//140 160//140 
f 138//138 160//140 159//138 
f 140//140 142//142 161//142 
f 140//140 161//142 160//140 
f 142//142 144//144 162//144 
f 142//142 162//144 161//142 
f 144//144 146//146 163//146 
f 144//144 163//146 162//144 
f 146//146 148//148 164//148 
f 146//146 164//148 163//146 
f 148//148 150//150 165//150 
f 148//148 165//150 164//148 
f 150//150 152//152 166//152 
f 150//150 166//152 165//150 
f 152//152 154//154 167//157 
f 152//152 167//157 166//152 
f 154//154 156//156 168//156 
f 154//154 168//156 167//157 
f 156//156 136//136 158//136 
f 156//156 158//136 168//156 
usemtl Pool_tip01
f 158//136 157//135 169//121 
f 158//136 169//121 170//123 
f 157//135 159//138 171//122 
f 157//135 171//122 169//121 
f 159//138 160//140 172//132 
f 159//138 172//132 171//122 
f 160//140 161//142 173//131 
f 160//140 173//131 172//132 
f 161//142 162//144 174//130 
f 161//142 174//130 173//131 
f 162//144 163//146 175//129 
f 162//144 175//129 174//130 
f 163//146 164//148 176//128 
f 163//146 176//128 175//129 
f 164//148 165//150 177//127 
f 164//148 177//127 176//128 
f 165//150 166//152 178//126 
f 165//150 178//126 177//127 
f 166//152 167//157 179//158 
f 166//152 179//158 178//126 
f 167//157 168//156 180//124 
f 167//157 180//124 179//158 
f 168//156 158//136 170//123 
f 168//156 170//123 180//124 
f 170//123 169//121 181//159 
f 170//123 181//159 182//160 
f 169//121 171//122 183//161 
f 169//121 183//161 181//159 
f 171//122 172//132 184//162 
f 171//122 184//162 183//161 
f 172//132 173//131 185//163 
f 172//132 185//163 184//162 
f 173//131 174//130 186//164 
f 173//131 186//164 185//163 
f 174//130 175//129 187//165 
f 174//130 187//165 186//164 
f 175//129 176//128 188//166 
f 175//129 188//166 187//165 
f 176//128 177//127 189//167 
f 176//128 189//167 188//166 
f 177//127 178//126 190//168 
f 177//127 190//168 189//167 
f 178//126 179//158 191//169 
f 178//126 191//169 190//168 
f 179//158 180//124 192//170 
f 179//158 192//170 191//169 
f 180//124 170//123 182//160 
f 180//124 182//160 192//170 
f 182//160 181//159 6//6 
f 182//160 6//6 5//5 
f 181//159 183//161 36//36 
f 181//159 36//36 6//6 
f 183//161 184//162 33//33 
f 183//161 33//33 36//36 
f 184//162 185//163 30//30 
f 184//162 30//30 33//33 
f 185//163 186//164 27//27 
f 185//163 27//27 30//30 
f 186//164 187//165 24//24 
f 186//164 24//24 27//27 
f 187//165 188//166 21//21 
f 187//165 21//21 24//24 
f 188//166 189//167 18//18 
f 188//166 18//18 21//21 
f 189//167 190//168 15//15 
f 189//167 15//15 18//18 
f 190//168 191//169 12//12 
f 190//168 12//12 15//15 
f 191//169 192//170 9//9 
f 191//169 9//9 12//12 
f 192//170 182//160 5//5 
f 192//170 5//5 9//9 
usemtl Pool_rubber01
f 37//37 59//59 57//57 
f 37//37 57//57 55//55 
f 37//37 55//55 53//53 
f 37//37 53//53 51//51 
f 37//37 51//51 49//49 
f 37//37 49//49 47//47 
f 37//37 47//47 45//45 
f 37//37 45//45 43//43 
f 37//37 43//43 41//41 
f 37//37 41//41 38//38 
usemtl Pool_cue01
f 133//133 155//155 153//153 
f 133//133 153//153 151//151 
f 133//133 151//151 149//149 
f 133//133 149//149 147//147 
f 133//133 147//147 145//145 
f 133//133 145//145 143//143 
f 133//133 143//143 141//141 
f 133//133 141//141 139//139 
f 133//133 139//139 137//137 
f 133//133 137//137 134//134 
# 0 polygons - 380 triangles

